<svg width="84" height="84" viewBox="0 0 84 84" fill="none" xmlns="http://www.w3.org/2000/svg">
<path d="M30.3333 77H22.5556C13.9645 77 7 69.7631 7 60.8363V35.4091C7 29.7569 9.84126 24.5153 14.4931 21.5858L33.9375 9.34055C38.8932 6.21982 45.1068 6.21982 50.0624 9.34055L69.5069 21.5858C74.1588 24.5153 77 29.7569 77 35.4091V60.8363C77 69.7631 70.0354 77 61.4444 77H53.6667M30.3333 77V60.8363C30.3333 54.1408 35.5565 48.7134 42 48.7134C48.4435 48.7134 53.6667 54.1408 53.6667 60.8363V77M30.3333 77H53.6667" stroke="#F6ECEA" stroke-width="13.087" stroke-linecap="round" stroke-linejoin="round"/>
</svg>
