<svg width="80" height="61" viewBox="0 0 80 61" fill="none" xmlns="http://www.w3.org/2000/svg">
<path d="M40 27.6262H49.7222H59.4444" stroke="#F6ECEA" stroke-width="9.05018" stroke-linecap="round" stroke-linejoin="round"/>
<path d="M40 16.313H49.7222H59.4444" stroke="#F6ECEA" stroke-width="9.05018" stroke-linecap="round" stroke-linejoin="round"/>
<path d="M24.4445 38.9394V6.69697C24.4445 5.75976 25.4891 5 26.7778 5H72.6667C73.9554 5 75 5.75976 75 6.69697V44.596C75 50.8439 68.0354 55.9091 59.4445 55.9091" stroke="#F6ECEA" stroke-width="9.05018" stroke-linecap="round" stroke-linejoin="round"/>
<path d="M12.7778 38.9392H24.4444H41.5555C42.8443 38.9392 43.9009 39.6938 44.0048 40.628C44.4823 44.9202 46.9269 55.9089 59.4444 55.9089H24.4444H16.6667C10.2234 55.9089 5 52.1102 5 47.4241V44.5958C5 41.4717 8.48223 38.9392 12.7778 38.9392Z" stroke="#F6ECEA" stroke-width="9.05018" stroke-linecap="round" stroke-linejoin="round"/>
</svg>
