<svg width="80" height="80" viewBox="0 0 80 80" fill="none" xmlns="http://www.w3.org/2000/svg">
<path d="M40 50.5C45.7992 50.5 50.5 45.7992 50.5 40C50.5 34.2008 45.7992 29.5 40 29.5C34.2008 29.5 29.5 34.2008 29.5 40C29.5 45.7992 34.2008 50.5 40 50.5Z" stroke="#F6ECEA" stroke-width="9.02717" stroke-linecap="round" stroke-linejoin="round"/>
<path d="M66.6784 34.3839L62.8365 25.1068L68 19L61 12L54.9264 17.1903L45.4523 13.2941L43.2735 5H36.4335L34.2219 13.404L24.9654 17.3059L19 12L12 19L17.0868 25.261L13.3037 34.562L5 36.5V43.5L13.4039 45.7943L17.3051 55.0489L12 61L19 68L25.2691 62.8911L34.3895 66.6431L36.5 75H43.5L45.6157 66.6462L54.8929 62.8042C56.4392 63.9095 61 68 61 68L68 61L62.8056 54.8729L66.6486 45.593L74.9997 43.4202L75 36.5L66.6784 34.3839Z" stroke="#F6ECEA" stroke-width="9.02717" stroke-linecap="round" stroke-linejoin="round"/>
</svg>
