<svg width="70" height="53" viewBox="0 0 70 53" fill="none" xmlns="http://www.w3.org/2000/svg">
<path d="M3.73135 0.017758C2.57082 0.203444 1.53158 0.842545 0.842253 1.79447C0.15293 2.74639 -0.130011 3.93316 0.0556751 5.09369C0.241361 6.25423 0.880462 7.29347 1.83238 7.98279C2.78431 8.67212 3.97107 8.95505 5.13161 8.76937H18.259L19.0467 10.9573L22.6348 21.8968L26.223 32.8363C26.5731 33.974 28.0608 35.0242 29.1985 35.0242H59.8292C61.0544 35.0242 62.4547 33.974 62.8047 32.8363L69.8935 10.9573C70.2436 9.81956 69.7185 8.76937 68.4933 8.76937H29.6361L26.3105 2.46821C25.9563 1.74497 25.4094 1.13351 24.73 0.70115C24.0505 0.268794 23.265 0.0323165 22.4598 0.017758L4.95658 0.017758C4.69456 -0.00591935 4.43095 -0.00591935 4.16893 0.017758C3.99406 0.00724664 3.81871 0.00724664 3.64384 0.017758L3.73135 0.017758ZM31.3864 43.7758C28.936 43.7758 27.0106 45.7012 27.0106 48.1516C27.0106 50.6021 28.936 52.5274 31.3864 52.5274C33.8369 52.5274 35.7623 50.6021 35.7623 48.1516C35.7623 45.7012 33.8369 43.7758 31.3864 43.7758ZM57.6413 43.7758C55.1908 43.7758 53.2655 45.7012 53.2655 48.1516C53.2655 50.6021 55.1908 52.5274 57.6413 52.5274C60.0917 52.5274 62.0171 50.6021 62.0171 48.1516C62.0171 45.7012 60.0917 43.7758 57.6413 43.7758Z" fill="black"/>
</svg>
